<?xml version="1.0" encoding="UTF-8"?><svg xmlns="http://www.w3.org/2000/svg" viewBox="0 0 234.01 20.55"><defs><style>.h{fill:#191724;}</style></defs><g id="a"/><g id="b"/><g id="c"/><g id="d"/><g id="e"/><g id="f"><g><g><path class="h" d="M51.42,2.86c1.17,0,2.05,.35,2.65,1.04,.33,.39,.61,.97,.82,1.74h3.35c-.05-1-.42-1.99-1.1-2.99-1.23-1.77-3.18-2.65-5.85-2.65-1.99,0-3.63,.66-4.92,1.98-1.48,1.51-2.23,3.67-2.23,6.46,0,2.59,.65,4.62,1.96,6.1,1.3,1.48,3.1,2.22,5.37,2.22,1.84,0,3.35-.55,4.53-1.64,1.18-1.09,1.91-2.51,2.2-4.26h-3.32c-.22,.83-.5,1.44-.83,1.86-.6,.77-1.48,1.15-2.62,1.15s-2.04-.45-2.77-1.34-1.09-2.24-1.09-4.04,.34-3.18,1.03-4.17,1.63-1.47,2.82-1.47Z"/><rect class="h" x="126.65" y=".21" width="3.14" height="2.86"/><rect class="h" x="199.48" y=".21" width="3.1" height="2.86"/></g><g><path class="h" d="M229.03,14.08c0,.74,.17,1.29,.52,1.64,.26,.27,.63,.47,1.12,.6h3.35v-2.2c-.1,0-.2,.01-.31,.02-.1,0-.2,0-.3,0-.63,0-1.01-.06-1.13-.18-.12-.12-.18-.42-.18-.91V6.79h1.92v-2.2h-1.92V1.28h-3.06v3.3h-1.65v2.2h1.65v7.29Z"/><path class="h" d="M201.52,20.55c.13-.09,.25-.19,.35-.31,.47-.57,.71-1.46,.71-2.65V4.53h-3.1v13c0,.43-.08,.72-.23,.86-.16,.15-.39,.22-.69,.22-.06,0-.12,0-.2,0-.07,0-.2-.01-.37-.03v1.96h3.53Z"/></g><polygon class="h" points="4.81 16.31 8.18 16.31 8.18 3.14 12.97 3.14 12.97 .3 0 .3 0 3.14 4.81 3.14 4.81 16.31"/><path class="h" d="M36.91,6.47c-.54-.8-1.22-1.38-2.05-1.75-.7-.31-1.47-.48-2.31-.53h-1.01c-1.49,.1-2.72,.64-3.7,1.62-1.09,1.09-1.63,2.67-1.63,4.72,0,2.19,.6,3.77,1.81,4.74,.57,.46,1.19,.81,1.85,1.05h4.77c.78-.29,1.45-.73,2-1.33,.68-.72,1.06-1.44,1.15-2.14h-3.16c-.18,.35-.4,.62-.64,.81-.44,.36-1.01,.54-1.72,.54-.67,0-1.23-.15-1.71-.45-.78-.48-1.19-1.31-1.24-2.5h8.62c.02-1.02-.02-1.81-.1-2.35-.14-.93-.46-1.74-.94-2.45Zm-7.5,2.76c.11-.77,.39-1.38,.83-1.83,.44-.45,1.05-.68,1.85-.68,.73,0,1.34,.21,1.84,.64,.49,.43,.77,1.05,.83,1.87h-5.33Z"/><path class="h" d="M24.09,5.7c-.38-.52-.87-.91-1.47-1.16-.46-.2-.96-.31-1.5-.36h-.9c-.5,.05-.98,.17-1.44,.39-.59,.27-1.1,.75-1.55,1.44V.36h-3.1v15.96h3.1v-6.42c0-1.01,.21-1.8,.63-2.34,.42-.55,1.04-.82,1.85-.82s1.31,.28,1.59,.83c.22,.39,.32,.91,.32,1.54v7.21h3.16v-6.96c0-1.06-.04-1.82-.11-2.29s-.27-.92-.59-1.36Z"/><rect class="h" x="126.65" y="4.48" width="3.14" height="11.84"/><path class="h" d="M120.19,14.08c0,.74,.17,1.29,.52,1.64,.26,.27,.63,.47,1.12,.6h3.35v-2.2c-.1,0-.2,.01-.31,.02-.1,0-.2,0-.3,0-.63,0-1.01-.06-1.13-.18-.12-.12-.18-.42-.18-.91V6.79h1.92v-2.2h-1.92V1.28h-3.06v3.3h-1.65v2.2h1.65v7.29Z"/><path class="h" d="M167.57,10.56h3.33c1.74,0,3.08-.39,4.02-1.17,.94-.78,1.41-2.12,1.41-4.01,0-1.73-.47-3.01-1.41-3.83-.94-.83-2.2-1.24-3.79-1.24h-6.87V16.31h3.32v-5.76Zm0-7.47h3.01c.76,0,1.36,.18,1.78,.53,.42,.35,.64,.95,.64,1.78s-.21,1.44-.64,1.82c-.42,.38-1.02,.58-1.78,.58h-3.01V3.08Z"/><path class="h" d="M221.79,6.81c.73,0,1.27,.24,1.62,.72,.24,.35,.39,.75,.45,1.19h3.17c-.17-1.69-.73-2.86-1.68-3.53-.94-.67-2.16-1-3.65-1-1.75,0-3.12,.56-4.11,1.69-.99,1.13-1.49,2.71-1.49,4.74,0,1.8,.45,3.26,1.35,4.39,.46,.58,1.06,1.01,1.79,1.29h4.66c.84-.33,1.53-.87,2.07-1.63,.61-.84,.95-1.73,1.02-2.67h-3.16c-.07,.62-.25,1.13-.56,1.52-.3,.39-.82,.59-1.55,.59-1.02,0-1.72-.49-2.09-1.48-.2-.53-.3-1.22-.3-2.09,0-.91,.1-1.64,.3-2.19,.39-1.04,1.1-1.55,2.15-1.55Z"/><path class="h" d="M214.72,6.47c-.54-.8-1.22-1.38-2.05-1.75-.7-.31-1.47-.48-2.31-.53h-1.01c-1.49,.1-2.72,.64-3.7,1.62-1.09,1.09-1.63,2.67-1.63,4.72,0,2.19,.6,3.77,1.81,4.74,.57,.46,1.19,.81,1.85,1.05h4.77c.78-.29,1.45-.73,2-1.33,.68-.72,1.06-1.44,1.15-2.14h-3.16c-.18,.35-.4,.62-.64,.81-.44,.36-1.01,.54-1.72,.54-.67,0-1.23-.15-1.71-.45-.78-.48-1.19-1.31-1.24-2.5h8.62c.02-1.02-.02-1.81-.1-2.35-.14-.93-.46-1.74-.94-2.45Zm-7.5,2.76c.11-.77,.39-1.38,.83-1.83,.44-.45,1.05-.68,1.85-.68,.73,0,1.34,.21,1.84,.64,.49,.43,.77,1.05,.83,1.87h-5.33Z"/><path class="h" d="M192.82,4.18h-2.38c-1.44,.21-2.57,.8-3.36,1.79-1,1.25-1.5,2.73-1.5,4.44s.5,3.22,1.5,4.46c.54,.66,1.23,1.14,2.06,1.45h4.97c.84-.31,1.53-.79,2.06-1.45,1-1.23,1.5-2.72,1.5-4.46s-.5-3.19-1.5-4.44c-.79-.99-1.92-1.59-3.36-1.79Zm.89,8.97c-.48,.64-1.18,.96-2.09,.96s-1.6-.32-2.09-.96c-.49-.64-.73-1.56-.73-2.74s.24-2.1,.73-2.74c.49-.64,1.19-.96,2.09-.96s1.6,.32,2.09,.96c.49,.64,.73,1.55,.73,2.74s-.24,2.1-.73,2.74Z"/><path class="h" d="M184.64,4.19c-.93,0-1.68,.24-2.26,.73-.35,.29-.77,.83-1.25,1.62v-2.06h-2.95v11.84h3.12v-5.66c0-.95,.12-1.65,.36-2.11,.43-.81,1.26-1.22,2.51-1.22,.09,0,.22,0,.37,.01s.33,.02,.52,.04v-3.17c-.14,0-.23-.01-.27-.02-.04,0-.09,0-.15,0Z"/><path class="h" d="M138.75,4.18h-2.38c-1.44,.21-2.57,.8-3.36,1.79-1,1.25-1.5,2.73-1.5,4.44s.5,3.22,1.5,4.46c.54,.66,1.23,1.14,2.06,1.45h4.97c.84-.31,1.53-.79,2.07-1.45,1-1.23,1.5-2.72,1.5-4.46s-.5-3.19-1.5-4.44c-.79-.99-1.92-1.59-3.36-1.79Zm.89,8.97c-.49,.64-1.18,.96-2.09,.96s-1.6-.32-2.09-.96c-.49-.64-.73-1.56-.73-2.74s.24-2.1,.73-2.74c.49-.64,1.19-.96,2.09-.96s1.6,.32,2.09,.96c.49,.64,.73,1.55,.73,2.74s-.24,2.1-.73,2.74Z"/><path class="h" d="M154.81,5.15c-.78-.64-1.77-.96-2.99-.96-.97,0-1.78,.24-2.41,.72-.35,.27-.73,.71-1.12,1.31v-1.73h-3v11.82h3.1v-6.41c0-.73,.1-1.33,.3-1.8,.39-.89,1.1-1.34,2.15-1.34,.85,0,1.42,.3,1.73,.91,.16,.33,.25,.81,.25,1.43v7.2h3.17v-7.97c0-1.48-.39-2.55-1.16-3.19Z"/><path class="h" d="M66.61,4.18h-2.38c-1.44,.21-2.57,.8-3.36,1.79-1,1.25-1.5,2.73-1.5,4.44s.5,3.22,1.5,4.46c.54,.66,1.23,1.14,2.06,1.45h4.97c.84-.31,1.53-.79,2.06-1.45,1-1.23,1.5-2.72,1.5-4.46s-.5-3.19-1.5-4.44c-.79-.99-1.92-1.59-3.36-1.79Zm.89,8.97c-.49,.64-1.18,.96-2.09,.96s-1.6-.32-2.09-.96c-.49-.64-.73-1.56-.73-2.74s.24-2.1,.73-2.74c.49-.64,1.19-.96,2.09-.96s1.6,.32,2.09,.96c.48,.64,.73,1.55,.73,2.74s-.24,2.1-.73,2.74Z"/><path class="h" d="M82.68,5.15c-.78-.64-1.77-.96-2.99-.96-.97,0-1.78,.24-2.41,.72-.35,.27-.73,.71-1.12,1.31v-1.73h-3v11.82h3.1v-6.41c0-.73,.1-1.33,.3-1.8,.39-.89,1.1-1.34,2.15-1.34,.85,0,1.42,.3,1.73,.91,.16,.33,.25,.81,.25,1.43v7.2h3.17v-7.97c0-1.48-.39-2.55-1.16-3.19Z"/><path class="h" d="M105.25,6.47c-.54-.8-1.22-1.38-2.05-1.75-.7-.31-1.47-.48-2.31-.53h-1.02c-1.46,.1-2.67,.63-3.63,1.57-.15-.23-.33-.43-.53-.6-.78-.64-1.77-.96-2.99-.96-.97,0-1.78,.24-2.41,.72-.35,.27-.73,.71-1.12,1.31v-1.73h-3v11.82h3.1v-6.41c0-.73,.1-1.33,.3-1.8,.39-.89,1.1-1.34,2.15-1.34,.85,0,1.42,.3,1.73,.91,.16,.33,.25,.81,.25,1.43v7.2h9.28c.78-.29,1.45-.73,2-1.33,.68-.72,1.06-1.44,1.15-2.14h-3.16c-.18,.35-.4,.62-.64,.81-.44,.36-1.01,.54-1.72,.54-.67,0-1.23-.15-1.71-.45-.78-.48-1.19-1.31-1.24-2.5h8.62c.02-1.02-.02-1.81-.1-2.35-.14-.93-.46-1.74-.94-2.45Zm-7.5,2.76c.11-.77,.39-1.38,.83-1.83,.44-.45,1.05-.68,1.85-.68,.73,0,1.34,.21,1.84,.64,.49,.43,.77,1.05,.83,1.87h-5.33Z"/><path class="h" d="M112.96,6.81c.73,0,1.27,.24,1.62,.72,.24,.35,.39,.75,.45,1.19h3.17c-.17-1.69-.73-2.86-1.68-3.53-.94-.67-2.16-1-3.65-1-1.75,0-3.12,.56-4.11,1.69-.99,1.13-1.49,2.71-1.49,4.74,0,1.8,.45,3.26,1.35,4.39,.46,.58,1.06,1.01,1.79,1.29h4.66c.84-.33,1.53-.87,2.07-1.63,.61-.84,.95-1.73,1.02-2.67h-3.16c-.07,.62-.25,1.13-.56,1.52-.3,.39-.82,.59-1.55,.59-1.02,0-1.72-.49-2.09-1.48-.2-.53-.3-1.22-.3-2.09,0-.91,.1-1.64,.3-2.19,.39-1.04,1.1-1.55,2.15-1.55Z"/></g></g><g id="g"/></svg>